<svg xmlns="http://www.w3.org/2000/svg" xmlns:xlink="http://www.w3.org/1999/xlink" width="1921" zoomAndPan="magnify" viewBox="0 0 1440.75 321.749992" height="429" preserveAspectRatio="xMidYMid meet" version="1.0"><defs><g/></defs><g fill="#372528" fill-opacity="1"><g transform="translate(11.049021, 234.742638)"><g/></g></g><g fill="#372528" fill-opacity="1"><g transform="translate(48.051517, 234.742638)"><g><path d="M 55.96875 -70.265625 C 51.363281 -70.265625 47.570312 -68.820312 44.59375 -65.9375 C 41.625 -63.0625 40.140625 -59.195312 40.140625 -54.34375 L 40.140625 -4.546875 C 40.140625 -3.210938 39.710938 -2.117188 38.859375 -1.265625 C 38.015625 -0.421875 36.925781 0 35.59375 0 L 10.828125 0 C 9.492188 0 8.398438 -0.421875 7.546875 -1.265625 C 6.703125 -2.117188 6.28125 -3.210938 6.28125 -4.546875 L 6.28125 -132.515625 C 6.28125 -133.859375 6.703125 -134.953125 7.546875 -135.796875 C 8.398438 -136.648438 9.492188 -137.078125 10.828125 -137.078125 L 35.59375 -137.078125 C 36.925781 -137.078125 38.015625 -136.648438 38.859375 -135.796875 C 39.710938 -134.953125 40.140625 -133.859375 40.140625 -132.515625 L 40.140625 -85.375 C 43.234375 -90.050781 47.160156 -93.601562 51.921875 -96.03125 C 56.691406 -98.457031 62.171875 -99.671875 68.359375 -99.671875 C 80.554688 -99.671875 89.789062 -96.039062 96.0625 -88.78125 C 102.34375 -81.53125 105.484375 -70.988281 105.484375 -57.15625 L 105.484375 -4.546875 C 105.484375 -3.210938 105.054688 -2.117188 104.203125 -1.265625 C 103.359375 -0.421875 102.269531 0 100.9375 0 L 76.1875 0 C 74.851562 0 73.757812 -0.421875 72.90625 -1.265625 C 72.050781 -2.117188 71.625 -3.210938 71.625 -4.546875 L 71.625 -54.34375 C 71.625 -59.195312 70.164062 -63.0625 67.25 -65.9375 C 64.34375 -68.820312 60.582031 -70.265625 55.96875 -70.265625 Z M 55.96875 -70.265625 "/></g></g></g><g fill="#372528" fill-opacity="1"><g transform="translate(156.584143, 234.742638)"><g><path d="M 50.421875 1.90625 C 39.804688 1.90625 31.328125 -0.867188 24.984375 -6.421875 C 18.640625 -11.972656 15.46875 -19.660156 15.46875 -29.484375 L 15.46875 -68.90625 L 5.46875 -68.90625 C 4.25 -68.90625 3.195312 -69.359375 2.3125 -70.265625 C 1.4375 -71.171875 1 -72.296875 1 -73.640625 L 1 -80.640625 C 1 -82.703125 1.195312 -84.367188 1.59375 -85.640625 C 1.988281 -86.921875 2.703125 -88.140625 3.734375 -89.296875 L 27.859375 -116.046875 C 29.921875 -118.296875 31.632812 -119.753906 33 -120.421875 C 34.363281 -121.085938 36.132812 -121.421875 38.3125 -121.421875 L 44.78125 -121.421875 C 46.050781 -121.421875 47.125 -120.976562 48 -120.09375 C 48.882812 -119.21875 49.328125 -118.144531 49.328125 -116.875 L 49.328125 -96.9375 L 70.625 -96.9375 C 71.90625 -96.9375 73 -96.492188 73.90625 -95.609375 C 74.8125 -94.734375 75.265625 -93.660156 75.265625 -92.390625 L 75.265625 -73.640625 C 75.265625 -72.296875 74.8125 -71.171875 73.90625 -70.265625 C 73 -69.359375 71.90625 -68.90625 70.625 -68.90625 L 49.328125 -68.90625 L 49.328125 -36.59375 C 49.328125 -34.226562 49.960938 -32.359375 51.234375 -30.984375 C 52.515625 -29.617188 54.25 -28.9375 56.4375 -28.9375 C 57.707031 -28.9375 59.070312 -29.191406 60.53125 -29.703125 C 61.988281 -30.222656 63.65625 -31.03125 65.53125 -32.125 C 67.414062 -33.21875 69.007812 -33.613281 70.3125 -33.3125 C 71.613281 -33.007812 72.84375 -32.039062 74 -30.40625 L 82.546875 -17.5625 C 83.523438 -16.101562 83.984375 -14.644531 83.921875 -13.1875 C 83.859375 -11.738281 83.28125 -10.46875 82.1875 -9.375 C 78.726562 -5.851562 74.160156 -3.09375 68.484375 -1.09375 C 62.816406 0.90625 56.796875 1.90625 50.421875 1.90625 Z M 50.421875 1.90625 "/></g></g></g><g fill="#372528" fill-opacity="1"><g transform="translate(238.53936, 234.742638)"><g><path d="M 112.40625 -70.265625 C 108.457031 -70.265625 105.332031 -68.972656 103.03125 -66.390625 C 100.726562 -63.816406 99.578125 -60.34375 99.578125 -55.96875 L 99.578125 -4.546875 C 99.578125 -3.210938 99.148438 -2.117188 98.296875 -1.265625 C 97.453125 -0.421875 96.363281 0 95.03125 0 L 70.265625 0 C 68.929688 0 67.835938 -0.421875 66.984375 -1.265625 C 66.140625 -2.117188 65.71875 -3.210938 65.71875 -4.546875 L 65.71875 -55.96875 C 65.71875 -60.40625 64.5625 -63.894531 62.25 -66.4375 C 59.945312 -68.988281 56.851562 -70.265625 52.96875 -70.265625 C 49.03125 -70.265625 45.90625 -68.972656 43.59375 -66.390625 C 41.289062 -63.816406 40.140625 -60.34375 40.140625 -55.96875 L 40.140625 -4.546875 C 40.140625 -3.210938 39.710938 -2.117188 38.859375 -1.265625 C 38.015625 -0.421875 36.925781 0 35.59375 0 L 10.828125 0 C 9.492188 0 8.398438 -0.421875 7.546875 -1.265625 C 6.703125 -2.117188 6.28125 -3.210938 6.28125 -4.546875 L 6.28125 -92.390625 C 6.28125 -93.660156 6.71875 -94.734375 7.59375 -95.609375 C 8.476562 -96.492188 9.585938 -96.9375 10.921875 -96.9375 L 35.5 -96.9375 C 36.832031 -96.9375 37.9375 -96.492188 38.8125 -95.609375 C 39.695312 -94.734375 40.140625 -93.660156 40.140625 -92.390625 L 40.140625 -85.375 C 43.171875 -89.863281 46.992188 -93.367188 51.609375 -95.890625 C 56.222656 -98.410156 61.226562 -99.671875 66.625 -99.671875 C 72.9375 -99.671875 78.351562 -98.457031 82.875 -96.03125 C 87.394531 -93.601562 90.898438 -90.050781 93.390625 -85.375 C 97.453125 -90.351562 102.015625 -93.976562 107.078125 -96.25 C 112.148438 -98.53125 117.960938 -99.671875 124.515625 -99.671875 C 135.253906 -99.671875 143.6875 -96.207031 149.8125 -89.28125 C 155.945312 -82.363281 159.015625 -73.265625 159.015625 -61.984375 L 159.015625 -4.546875 C 159.015625 -3.210938 158.585938 -2.117188 157.734375 -1.265625 C 156.890625 -0.421875 155.796875 0 154.453125 0 L 129.703125 0 C 128.367188 0 127.273438 -0.421875 126.421875 -1.265625 C 125.578125 -2.117188 125.15625 -3.210938 125.15625 -4.546875 L 125.15625 -55.96875 C 125.15625 -60.40625 124 -63.894531 121.6875 -66.4375 C 119.382812 -68.988281 116.289062 -70.265625 112.40625 -70.265625 Z M 112.40625 -70.265625 "/></g></g></g><g fill="#372528" fill-opacity="1"><g transform="translate(400.590863, 234.742638)"><g/></g></g><g fill="#372528" fill-opacity="1"><g transform="translate(437.582931, 234.742638)"><g><path d="M 55.96875 -70.265625 C 51.363281 -70.265625 47.570312 -68.820312 44.59375 -65.9375 C 41.625 -63.0625 40.140625 -59.195312 40.140625 -54.34375 L 40.140625 -4.546875 C 40.140625 -3.210938 39.710938 -2.117188 38.859375 -1.265625 C 38.015625 -0.421875 36.925781 0 35.59375 0 L 10.828125 0 C 9.492188 0 8.398438 -0.421875 7.546875 -1.265625 C 6.703125 -2.117188 6.28125 -3.210938 6.28125 -4.546875 L 6.28125 -132.515625 C 6.28125 -133.859375 6.703125 -134.953125 7.546875 -135.796875 C 8.398438 -136.648438 9.492188 -137.078125 10.828125 -137.078125 L 35.59375 -137.078125 C 36.925781 -137.078125 38.015625 -136.648438 38.859375 -135.796875 C 39.710938 -134.953125 40.140625 -133.859375 40.140625 -132.515625 L 40.140625 -85.375 C 43.234375 -90.050781 47.160156 -93.601562 51.921875 -96.03125 C 56.691406 -98.457031 62.171875 -99.671875 68.359375 -99.671875 C 80.554688 -99.671875 89.789062 -96.039062 96.0625 -88.78125 C 102.34375 -81.53125 105.484375 -70.988281 105.484375 -57.15625 L 105.484375 -4.546875 C 105.484375 -3.210938 105.054688 -2.117188 104.203125 -1.265625 C 103.359375 -0.421875 102.269531 0 100.9375 0 L 76.1875 0 C 74.851562 0 73.757812 -0.421875 72.90625 -1.265625 C 72.050781 -2.117188 71.625 -3.210938 71.625 -4.546875 L 71.625 -54.34375 C 71.625 -59.195312 70.164062 -63.0625 67.25 -65.9375 C 64.34375 -68.820312 60.582031 -70.265625 55.96875 -70.265625 Z M 55.96875 -70.265625 "/></g></g></g><g fill="#372528" fill-opacity="1"><g transform="translate(546.115568, 234.742638)"><g><path d="M 37.953125 -60.984375 L 70.078125 -60.984375 C 69.410156 -64.742188 67.601562 -67.804688 64.65625 -70.171875 C 61.71875 -72.535156 58.28125 -73.71875 54.34375 -73.71875 C 50.457031 -73.71875 46.976562 -72.535156 43.90625 -70.171875 C 40.84375 -67.804688 38.859375 -64.742188 37.953125 -60.984375 Z M 98.84375 -15.84375 C 94.957031 -10.195312 89.160156 -5.671875 81.453125 -2.265625 C 73.753906 1.128906 65.320312 2.828125 56.15625 2.828125 C 40.6875 2.828125 27.988281 -1.976562 18.0625 -11.59375 C 8.144531 -21.21875 3.1875 -33.34375 3.1875 -47.96875 C 3.1875 -63.132812 7.84375 -75.539062 17.15625 -85.1875 C 26.46875 -94.84375 38.679688 -99.671875 53.796875 -99.671875 C 68.359375 -99.671875 80.1875 -95.039062 89.28125 -85.78125 C 98.382812 -76.53125 102.9375 -65.171875 102.9375 -51.703125 L 102.9375 -46.140625 C 102.9375 -44.015625 102.484375 -42.316406 101.578125 -41.046875 C 100.671875 -39.773438 99.363281 -39.140625 97.65625 -39.140625 L 37.234375 -39.140625 C 38.140625 -34.648438 40.351562 -31.097656 43.875 -28.484375 C 47.394531 -25.878906 51.640625 -24.578125 56.609375 -24.578125 C 59.953125 -24.578125 63.03125 -25.179688 65.84375 -26.390625 C 68.664062 -27.609375 71.382812 -29.519531 74 -32.125 C 75.15625 -33.28125 76.351562 -33.914062 77.59375 -34.03125 C 78.832031 -34.15625 80.125 -33.796875 81.46875 -32.953125 L 97.84375 -22.203125 C 99 -21.472656 99.648438 -20.5 99.796875 -19.28125 C 99.953125 -18.070312 99.632812 -16.925781 98.84375 -15.84375 Z M 98.84375 -15.84375 "/></g></g></g><g fill="#372528" fill-opacity="1"><g transform="translate(650.006243, 234.742638)"><g><path d="M 75.734375 -4.640625 L 75.734375 -6.28125 C 72.578125 -3.25 69.007812 -0.972656 65.03125 0.546875 C 61.0625 2.066406 56.738281 2.828125 52.0625 2.828125 C 38.226562 2.828125 26.59375 -2.113281 17.15625 -12 C 7.71875 -21.894531 3 -34.035156 3 -48.421875 C 3 -62.804688 7.71875 -74.941406 17.15625 -84.828125 C 26.59375 -94.722656 38.226562 -99.671875 52.0625 -99.671875 C 56.738281 -99.671875 61.0625 -98.910156 65.03125 -97.390625 C 69.007812 -95.867188 72.578125 -93.625 75.734375 -90.65625 L 75.734375 -92.390625 C 75.734375 -93.722656 76.15625 -94.8125 77 -95.65625 C 77.851562 -96.507812 78.945312 -96.9375 80.28125 -96.9375 L 105.03125 -96.9375 C 106.363281 -96.9375 107.457031 -96.507812 108.3125 -95.65625 C 109.164062 -94.8125 109.59375 -93.722656 109.59375 -92.390625 L 109.59375 -4.640625 C 109.59375 -3.367188 109.148438 -2.273438 108.265625 -1.359375 C 107.390625 -0.453125 106.34375 0 105.125 0 L 80.453125 0 C 79.179688 0 78.078125 -0.453125 77.140625 -1.359375 C 76.203125 -2.273438 75.734375 -3.367188 75.734375 -4.640625 Z M 37.046875 -48.421875 C 37.046875 -42.898438 38.941406 -38.195312 42.734375 -34.3125 C 46.523438 -30.425781 51.148438 -28.484375 56.609375 -28.484375 C 62.078125 -28.484375 66.707031 -30.425781 70.5 -34.3125 C 74.289062 -38.195312 76.1875 -42.898438 76.1875 -48.421875 C 76.1875 -53.941406 74.289062 -58.644531 70.5 -62.53125 C 66.707031 -66.414062 62.078125 -68.359375 56.609375 -68.359375 C 51.148438 -68.359375 46.523438 -66.414062 42.734375 -62.53125 C 38.941406 -58.644531 37.046875 -53.941406 37.046875 -48.421875 Z M 37.046875 -48.421875 "/></g></g></g><g fill="#372528" fill-opacity="1"><g transform="translate(763.635917, 234.742638)"><g><path d="M 6.28125 -4.640625 L 6.28125 -132.515625 C 6.28125 -133.859375 6.703125 -134.953125 7.546875 -135.796875 C 8.398438 -136.648438 9.492188 -137.078125 10.828125 -137.078125 L 35.59375 -137.078125 C 36.925781 -137.078125 38.015625 -136.648438 38.859375 -135.796875 C 39.710938 -134.953125 40.140625 -133.859375 40.140625 -132.515625 L 40.140625 -4.640625 C 40.140625 -3.367188 39.695312 -2.273438 38.8125 -1.359375 C 37.9375 -0.453125 36.890625 0 35.671875 0 L 11.015625 0 C 9.742188 0 8.632812 -0.453125 7.6875 -1.359375 C 6.75 -2.273438 6.28125 -3.367188 6.28125 -4.640625 Z M 6.28125 -4.640625 "/></g></g></g><g fill="#372528" fill-opacity="1"><g transform="translate(807.727418, 234.742638)"><g><path d="M 50.421875 1.90625 C 39.804688 1.90625 31.328125 -0.867188 24.984375 -6.421875 C 18.640625 -11.972656 15.46875 -19.660156 15.46875 -29.484375 L 15.46875 -68.90625 L 5.46875 -68.90625 C 4.25 -68.90625 3.195312 -69.359375 2.3125 -70.265625 C 1.4375 -71.171875 1 -72.296875 1 -73.640625 L 1 -80.640625 C 1 -82.703125 1.195312 -84.367188 1.59375 -85.640625 C 1.988281 -86.921875 2.703125 -88.140625 3.734375 -89.296875 L 27.859375 -116.046875 C 29.921875 -118.296875 31.632812 -119.753906 33 -120.421875 C 34.363281 -121.085938 36.132812 -121.421875 38.3125 -121.421875 L 44.78125 -121.421875 C 46.050781 -121.421875 47.125 -120.976562 48 -120.09375 C 48.882812 -119.21875 49.328125 -118.144531 49.328125 -116.875 L 49.328125 -96.9375 L 70.625 -96.9375 C 71.90625 -96.9375 73 -96.492188 73.90625 -95.609375 C 74.8125 -94.734375 75.265625 -93.660156 75.265625 -92.390625 L 75.265625 -73.640625 C 75.265625 -72.296875 74.8125 -71.171875 73.90625 -70.265625 C 73 -69.359375 71.90625 -68.90625 70.625 -68.90625 L 49.328125 -68.90625 L 49.328125 -36.59375 C 49.328125 -34.226562 49.960938 -32.359375 51.234375 -30.984375 C 52.515625 -29.617188 54.25 -28.9375 56.4375 -28.9375 C 57.707031 -28.9375 59.070312 -29.191406 60.53125 -29.703125 C 61.988281 -30.222656 63.65625 -31.03125 65.53125 -32.125 C 67.414062 -33.21875 69.007812 -33.613281 70.3125 -33.3125 C 71.613281 -33.007812 72.84375 -32.039062 74 -30.40625 L 82.546875 -17.5625 C 83.523438 -16.101562 83.984375 -14.644531 83.921875 -13.1875 C 83.859375 -11.738281 83.28125 -10.46875 82.1875 -9.375 C 78.726562 -5.851562 74.160156 -3.09375 68.484375 -1.09375 C 62.816406 0.90625 56.796875 1.90625 50.421875 1.90625 Z M 50.421875 1.90625 "/></g></g></g><g fill="#372528" fill-opacity="1"><g transform="translate(889.68267, 234.742638)"><g><path d="M 55.96875 -70.265625 C 51.363281 -70.265625 47.570312 -68.820312 44.59375 -65.9375 C 41.625 -63.0625 40.140625 -59.195312 40.140625 -54.34375 L 40.140625 -4.546875 C 40.140625 -3.210938 39.710938 -2.117188 38.859375 -1.265625 C 38.015625 -0.421875 36.925781 0 35.59375 0 L 10.828125 0 C 9.492188 0 8.398438 -0.421875 7.546875 -1.265625 C 6.703125 -2.117188 6.28125 -3.210938 6.28125 -4.546875 L 6.28125 -132.515625 C 6.28125 -133.859375 6.703125 -134.953125 7.546875 -135.796875 C 8.398438 -136.648438 9.492188 -137.078125 10.828125 -137.078125 L 35.59375 -137.078125 C 36.925781 -137.078125 38.015625 -136.648438 38.859375 -135.796875 C 39.710938 -134.953125 40.140625 -133.859375 40.140625 -132.515625 L 40.140625 -85.375 C 43.234375 -90.050781 47.160156 -93.601562 51.921875 -96.03125 C 56.691406 -98.457031 62.171875 -99.671875 68.359375 -99.671875 C 80.554688 -99.671875 89.789062 -96.039062 96.0625 -88.78125 C 102.34375 -81.53125 105.484375 -70.988281 105.484375 -57.15625 L 105.484375 -4.546875 C 105.484375 -3.210938 105.054688 -2.117188 104.203125 -1.265625 C 103.359375 -0.421875 102.269531 0 100.9375 0 L 76.1875 0 C 74.851562 0 73.757812 -0.421875 72.90625 -1.265625 C 72.050781 -2.117188 71.625 -3.210938 71.625 -4.546875 L 71.625 -54.34375 C 71.625 -59.195312 70.164062 -63.0625 67.25 -65.9375 C 64.34375 -68.820312 60.582031 -70.265625 55.96875 -70.265625 Z M 55.96875 -70.265625 "/></g></g></g><g fill="#372528" fill-opacity="1"><g transform="translate(998.215215, 234.742638)"><g><path d="M 56.609375 2.828125 C 41.679688 2.828125 29.015625 -2.144531 18.609375 -12.09375 C 8.203125 -22.050781 3 -34.160156 3 -48.421875 C 3 -62.679688 8.203125 -74.785156 18.609375 -84.734375 C 29.015625 -94.691406 41.679688 -99.671875 56.609375 -99.671875 C 67.410156 -99.671875 76.9375 -97.285156 85.1875 -92.515625 C 93.445312 -87.753906 99.425781 -81.1875 103.125 -72.8125 C 104.03125 -70.9375 104.132812 -69.191406 103.4375 -67.578125 C 102.738281 -65.972656 101.238281 -64.835938 98.9375 -64.171875 L 80.453125 -58.609375 C 78.640625 -58.066406 77.09375 -57.914062 75.8125 -58.15625 C 74.539062 -58.40625 72.992188 -59.585938 71.171875 -61.703125 C 69.410156 -63.890625 67.285156 -65.546875 64.796875 -66.671875 C 62.316406 -67.796875 59.585938 -68.359375 56.609375 -68.359375 C 51.148438 -68.359375 46.507812 -66.414062 42.6875 -62.53125 C 38.863281 -58.644531 36.953125 -53.941406 36.953125 -48.421875 C 36.953125 -42.898438 38.863281 -38.195312 42.6875 -34.3125 C 46.507812 -30.425781 51.148438 -28.484375 56.609375 -28.484375 C 59.585938 -28.484375 62.316406 -29.046875 64.796875 -30.171875 C 67.285156 -31.296875 69.410156 -32.953125 71.171875 -35.140625 C 73.054688 -37.253906 74.617188 -38.429688 75.859375 -38.671875 C 77.109375 -38.921875 78.640625 -38.773438 80.453125 -38.234375 L 98.9375 -32.671875 C 101.238281 -32.003906 102.738281 -30.863281 103.4375 -29.25 C 104.132812 -27.644531 104.03125 -25.90625 103.125 -24.03125 C 99.425781 -15.65625 93.445312 -9.082031 85.1875 -4.3125 C 76.9375 0.445312 67.410156 2.828125 56.609375 2.828125 Z M 56.609375 2.828125 "/></g></g></g><g fill="#372528" fill-opacity="1"><g transform="translate(1100.74071, 234.742638)"><g><path d="M 75.734375 -4.640625 L 75.734375 -6.28125 C 72.578125 -3.25 69.007812 -0.972656 65.03125 0.546875 C 61.0625 2.066406 56.738281 2.828125 52.0625 2.828125 C 38.226562 2.828125 26.59375 -2.113281 17.15625 -12 C 7.71875 -21.894531 3 -34.035156 3 -48.421875 C 3 -62.804688 7.71875 -74.941406 17.15625 -84.828125 C 26.59375 -94.722656 38.226562 -99.671875 52.0625 -99.671875 C 56.738281 -99.671875 61.0625 -98.910156 65.03125 -97.390625 C 69.007812 -95.867188 72.578125 -93.625 75.734375 -90.65625 L 75.734375 -92.390625 C 75.734375 -93.722656 76.15625 -94.8125 77 -95.65625 C 77.851562 -96.507812 78.945312 -96.9375 80.28125 -96.9375 L 105.03125 -96.9375 C 106.363281 -96.9375 107.457031 -96.507812 108.3125 -95.65625 C 109.164062 -94.8125 109.59375 -93.722656 109.59375 -92.390625 L 109.59375 -4.640625 C 109.59375 -3.367188 109.148438 -2.273438 108.265625 -1.359375 C 107.390625 -0.453125 106.34375 0 105.125 0 L 80.453125 0 C 79.179688 0 78.078125 -0.453125 77.140625 -1.359375 C 76.203125 -2.273438 75.734375 -3.367188 75.734375 -4.640625 Z M 37.046875 -48.421875 C 37.046875 -42.898438 38.941406 -38.195312 42.734375 -34.3125 C 46.523438 -30.425781 51.148438 -28.484375 56.609375 -28.484375 C 62.078125 -28.484375 66.707031 -30.425781 70.5 -34.3125 C 74.289062 -38.195312 76.1875 -42.898438 76.1875 -48.421875 C 76.1875 -53.941406 74.289062 -58.644531 70.5 -62.53125 C 66.707031 -66.414062 62.078125 -68.359375 56.609375 -68.359375 C 51.148438 -68.359375 46.523438 -66.414062 42.734375 -62.53125 C 38.941406 -58.644531 37.046875 -53.941406 37.046875 -48.421875 Z M 37.046875 -48.421875 "/></g></g></g><g fill="#372528" fill-opacity="1"><g transform="translate(1214.370338, 234.742638)"><g><path d="M 10.921875 -96.9375 L 28.578125 -96.9375 C 30.523438 -96.9375 32.179688 -96.476562 33.546875 -95.5625 C 34.910156 -94.65625 36.015625 -93.289062 36.859375 -91.46875 L 39.59375 -85.375 C 43.175781 -89.625 46.863281 -92.867188 50.65625 -95.109375 C 54.445312 -97.359375 58.160156 -98.484375 61.796875 -98.484375 C 65.742188 -98.484375 68.734375 -97.617188 70.765625 -95.890625 C 72.796875 -94.160156 73.597656 -91.6875 73.171875 -88.46875 L 70.453125 -66.359375 C 70.085938 -63.804688 69.265625 -61.890625 67.984375 -60.609375 C 66.710938 -59.335938 64.984375 -58.703125 62.796875 -58.703125 C 62.066406 -58.703125 61.304688 -58.773438 60.515625 -58.921875 C 59.734375 -59.078125 58.554688 -59.367188 56.984375 -59.796875 C 55.222656 -60.347656 53.898438 -60.695312 53.015625 -60.84375 C 52.140625 -61 51.273438 -61.078125 50.421875 -61.078125 C 47.328125 -61.078125 44.835938 -60.164062 42.953125 -58.34375 C 41.078125 -56.519531 40.140625 -54.03125 40.140625 -50.875 L 40.140625 -4.09375 C 40.140625 -3 39.664062 -2.039062 38.71875 -1.21875 C 37.78125 -0.40625 36.707031 0 35.5 0 L 10.828125 0 C 9.492188 0 8.398438 -0.421875 7.546875 -1.265625 C 6.703125 -2.117188 6.28125 -3.179688 6.28125 -4.453125 L 6.28125 -92.390625 C 6.28125 -93.660156 6.71875 -94.734375 7.59375 -95.609375 C 8.476562 -96.492188 9.585938 -96.9375 10.921875 -96.9375 Z M 10.921875 -96.9375 "/></g></g></g><g fill="#372528" fill-opacity="1"><g transform="translate(1286.313518, 234.742638)"><g><path d="M 37.953125 -60.984375 L 70.078125 -60.984375 C 69.410156 -64.742188 67.601562 -67.804688 64.65625 -70.171875 C 61.71875 -72.535156 58.28125 -73.71875 54.34375 -73.71875 C 50.457031 -73.71875 46.976562 -72.535156 43.90625 -70.171875 C 40.84375 -67.804688 38.859375 -64.742188 37.953125 -60.984375 Z M 98.84375 -15.84375 C 94.957031 -10.195312 89.160156 -5.671875 81.453125 -2.265625 C 73.753906 1.128906 65.320312 2.828125 56.15625 2.828125 C 40.6875 2.828125 27.988281 -1.976562 18.0625 -11.59375 C 8.144531 -21.21875 3.1875 -33.34375 3.1875 -47.96875 C 3.1875 -63.132812 7.84375 -75.539062 17.15625 -85.1875 C 26.46875 -94.84375 38.679688 -99.671875 53.796875 -99.671875 C 68.359375 -99.671875 80.1875 -95.039062 89.28125 -85.78125 C 98.382812 -76.53125 102.9375 -65.171875 102.9375 -51.703125 L 102.9375 -46.140625 C 102.9375 -44.015625 102.484375 -42.316406 101.578125 -41.046875 C 100.671875 -39.773438 99.363281 -39.140625 97.65625 -39.140625 L 37.234375 -39.140625 C 38.140625 -34.648438 40.351562 -31.097656 43.875 -28.484375 C 47.394531 -25.878906 51.640625 -24.578125 56.609375 -24.578125 C 59.953125 -24.578125 63.03125 -25.179688 65.84375 -26.390625 C 68.664062 -27.609375 71.382812 -29.519531 74 -32.125 C 75.15625 -33.28125 76.351562 -33.914062 77.59375 -34.03125 C 78.832031 -34.15625 80.125 -33.796875 81.46875 -32.953125 L 97.84375 -22.203125 C 99 -21.472656 99.648438 -20.5 99.796875 -19.28125 C 99.953125 -18.070312 99.632812 -16.925781 98.84375 -15.84375 Z M 98.84375 -15.84375 "/></g></g></g><g fill="#372528" fill-opacity="1"><g transform="translate(1390.211733, 234.742638)"><g/></g></g></svg>